<svg width="55" height="74" viewBox="0 0 55 74" fill="none" xmlns="http://www.w3.org/2000/svg">
<path d="M26.3945 52.6152H22.3906C22.3906 49.8483 22.7812 47.5208 23.5625 45.6328C24.3763 43.7122 25.3854 42.0195 26.5898 40.5547C27.8268 39.0898 29.1452 37.7552 30.5449 36.5508C31.9447 35.3138 33.2467 33.9954 34.4512 32.5957C35.6882 31.196 36.6973 29.5846 37.4785 27.7617C38.2923 25.9388 38.6992 23.6927 38.6992 21.0234C38.6992 18.0286 38.3086 15.4896 37.5273 13.4062C36.7461 11.3229 35.7044 9.64648 34.4023 8.37695C33.1003 7.07487 31.5866 6.14714 29.8613 5.59375C28.1686 5.00781 26.4108 4.71484 24.5879 4.71484C22.6999 4.71484 20.9095 5.04036 19.2168 5.69141C17.5566 6.3099 16.0267 7.20508 14.627 8.37695C13.2598 9.54883 12.0391 10.9648 10.9648 12.625C9.89062 14.2526 8.99544 16.0755 8.2793 18.0938L0.0761719 12.0879C1.73633 9.93945 3.51042 8.14909 5.39844 6.7168C7.31901 5.25195 9.33724 4.09635 11.4531 3.25C13.6016 2.37109 15.8477 1.7526 18.1914 1.39453C20.5352 1.00391 22.9766 0.808594 25.5156 0.808594C27.7943 0.808594 30.0892 0.971354 32.4004 1.29688C34.7116 1.6224 36.9414 2.14323 39.0898 2.85938C41.2383 3.57552 43.2402 4.50326 45.0957 5.64258C46.9512 6.7819 48.5625 8.14909 49.9297 9.74414C51.3294 11.3392 52.4199 13.1947 53.2012 15.3105C54.015 17.3939 54.4219 19.7539 54.4219 22.3906C54.4219 24.8646 54.015 26.9967 53.2012 28.7871C52.4199 30.5449 51.362 32.0911 50.0273 33.4258C48.7253 34.7279 47.2279 35.8509 45.5352 36.7949C43.875 37.7389 42.166 38.6341 40.4082 39.4805C38.6504 40.2943 36.9251 41.1081 35.2324 41.9219C33.5723 42.7031 32.0749 43.582 30.7402 44.5586C29.4382 45.5352 28.3802 46.6745 27.5664 47.9766C26.7852 49.2461 26.3945 50.7923 26.3945 52.6152ZM33.5234 64.6758C33.5234 65.8802 33.2793 67.0358 32.791 68.1426C32.3353 69.2168 31.7005 70.1608 30.8867 70.9746C30.0729 71.7884 29.1126 72.4232 28.0059 72.8789C26.9316 73.3672 25.7923 73.6113 24.5879 73.6113C23.3835 73.6113 22.2441 73.3672 21.1699 72.8789C20.0957 72.4232 19.1517 71.7884 18.3379 70.9746C17.5241 70.1608 16.873 69.2168 16.3848 68.1426C15.929 67.0358 15.7012 65.8802 15.7012 64.6758C15.7012 63.4714 15.929 62.332 16.3848 61.2578C16.873 60.1836 17.5241 59.2396 18.3379 58.4258C19.1517 57.612 20.0957 56.9772 21.1699 56.5215C22.2441 56.0332 23.3835 55.7891 24.5879 55.7891C25.7923 55.7891 26.9316 56.0332 28.0059 56.5215C29.1126 56.9772 30.0729 57.612 30.8867 58.4258C31.7005 59.2396 32.3353 60.1836 32.791 61.2578C33.2793 62.332 33.5234 63.4714 33.5234 64.6758Z" fill="black"/>
</svg>
